<svg width="616" height="719" viewBox="0 0 616 719" fill="none" xmlns="http://www.w3.org/2000/svg">
<g filter="url(#filter0_f)">
<path d="M444.083 714.528C536.36 714.528 611.166 703.335 611.166 689.528C611.166 675.721 536.36 664.528 444.083 664.528C351.806 664.528 277 675.721 277 689.528C277 703.335 351.806 714.528 444.083 714.528Z" fill="#E6E6E6"/>
<path d="M463.285 257.069C466.688 257.069 469.446 254.31 469.446 250.908C469.446 247.505 466.688 244.746 463.285 244.746C459.882 244.746 457.124 247.505 457.124 250.908C457.124 254.31 459.882 257.069 463.285 257.069Z" fill="#F2F2F2"/>
<path d="M375.952 642.629L377.407 655.729L364.308 654.273V638.262L375.952 642.629Z" fill="#FFB8B8"/>
<path d="M512.773 642.629L511.317 655.729L524.417 654.273V638.262L512.773 642.629Z" fill="#FFB8B8"/>
<path d="M374.496 360.253L368.674 510.174C368.674 510.174 349.752 622.251 354.119 625.162C358.485 628.074 354.119 644.085 354.119 644.085L378.863 646.996C378.863 646.996 378.863 635.351 384.685 630.985C390.507 626.618 444.362 421.386 444.362 421.386L499.673 619.34C499.673 619.34 498.217 630.985 502.584 630.985C506.951 630.985 508.406 646.996 508.406 646.996H533.15V630.985C533.15 630.985 540.428 629.529 536.062 617.885C531.695 606.24 515.684 360.254 515.684 360.254L374.496 360.253Z" fill="#2F2E41"/>
<path d="M367.219 642.629C367.219 642.629 359.941 638.262 357.03 641.173C354.119 644.085 330.83 673.195 330.83 673.195C330.83 673.195 298.808 693.573 327.919 699.395C357.03 705.217 378.863 677.562 380.319 674.651C381.774 671.74 378.863 648.451 377.408 651.362C375.952 654.273 371.585 652.818 370.13 651.362C368.674 649.907 367.219 642.629 367.219 642.629Z" fill="#2F2E41"/>
<path d="M521.506 642.629C521.506 642.629 528.784 638.262 531.695 641.173C534.606 644.085 557.895 673.195 557.895 673.195C557.895 673.195 589.917 693.573 560.806 699.395C531.695 705.217 509.862 677.562 508.406 674.651C506.951 671.74 509.862 648.451 511.318 651.362C512.773 654.273 517.14 652.818 518.595 651.362C520.051 649.907 521.506 642.629 521.506 642.629Z" fill="#2F2E41"/>
<path d="M462.557 144.833C479.036 144.833 492.396 131.474 492.396 114.994C492.396 98.5149 479.036 85.1557 462.557 85.1557C446.078 85.1557 432.718 98.5149 432.718 114.994C432.718 131.474 446.078 144.833 462.557 144.833Z" fill="#FFB8B8"/>
<path d="M442.907 131.733L438.54 176.855L473.473 184.133L482.207 130.278L442.907 131.733Z" fill="#FFB8B8"/>
<path d="M479.296 166.666C479.296 166.666 470.562 185.588 438.541 165.211L378.863 360.253C378.863 360.253 458.918 408.286 509.862 371.898L492.396 175.399L479.296 166.666Z" fill="#575A89"/>
<path d="M444.362 144.833L416.707 140.466L413.796 159.388C413.796 159.388 375.952 163.755 371.585 178.31L375.952 286.021C375.952 286.021 362.852 309.309 374.496 323.865C374.496 323.865 355.574 363.165 370.13 370.442C370.13 370.442 403.607 354.431 423.985 358.798C423.985 358.798 435.629 355.887 435.629 347.154C435.629 338.42 444.362 144.833 444.362 144.833Z" fill="#2F2E41"/>
<path d="M477.84 147.744L493.851 152.111L495.307 172.488C495.307 172.488 534.606 197.233 536.062 211.788C537.517 226.343 506.951 296.21 506.951 296.21C506.951 296.21 518.595 316.587 514.229 329.687C514.229 329.687 533.151 367.531 521.506 377.72C521.506 377.72 499.673 383.542 496.762 374.809C493.851 366.076 467.651 265.643 479.296 217.61C479.296 217.61 467.651 156.477 477.84 147.744Z" fill="#2F2E41"/>
<path d="M494.579 195.146H494.031V180.138C494.031 178.997 493.806 177.868 493.369 176.814C492.933 175.76 492.293 174.802 491.487 173.996C490.68 173.189 489.722 172.549 488.668 172.113C487.615 171.676 486.485 171.452 485.344 171.452H453.547C452.407 171.452 451.277 171.676 450.223 172.113C449.169 172.549 448.212 173.189 447.405 173.996C446.598 174.802 445.959 175.76 445.522 176.814C445.086 177.868 444.861 178.997 444.861 180.138V262.475C444.861 263.615 445.086 264.745 445.522 265.799C445.959 266.853 446.598 267.81 447.405 268.617C448.212 269.423 449.169 270.063 450.223 270.5C451.277 270.936 452.407 271.161 453.547 271.161H485.344C486.485 271.161 487.615 270.936 488.668 270.5C489.722 270.063 490.68 269.423 491.487 268.617C492.293 267.81 492.933 266.853 493.369 265.799C493.806 264.745 494.031 263.615 494.031 262.475V205.829H494.579V195.146Z" fill="white"/>
<path d="M508.406 253.999C508.406 253.999 496.762 216.155 479.295 227.799C461.829 239.443 490.94 271.465 490.94 271.465L508.406 253.999Z" fill="#FFB8B8"/>
<path d="M428.352 226.343C428.352 226.343 448.729 201.599 458.918 213.244C469.107 224.888 441.451 251.088 441.451 251.088L428.352 226.343Z" fill="#FFB8B8"/>
<path d="M375.952 176.855C375.952 176.855 368.674 175.399 364.307 188.499C359.941 201.599 343.93 251.088 343.93 259.821C343.93 268.554 349.752 303.487 381.774 297.665C413.796 291.843 451.64 251.088 451.64 251.088L431.262 220.521L387.596 246.721L375.952 176.855Z" fill="#2F2E41"/>
<path opacity="0.1" d="M382.241 214.59L388.324 245.993L433.446 219.794L391.235 235.805L381.929 212.716L382.241 214.59Z" fill="black"/>
<path opacity="0.1" d="M510.59 245.993L516.412 250.36L519.323 229.982L510.59 245.993Z" fill="black"/>
<path opacity="0.1" d="M375.224 301.304C375.224 301.304 417.977 289.673 438.084 264.194C438.084 264.194 417.435 298.393 375.224 301.304Z" fill="black"/>
<path opacity="0.1" d="M482.935 275.104C482.935 275.104 491.937 319.164 515.091 320.423C515.091 320.423 487.301 328.959 482.935 275.104Z" fill="black"/>
<path d="M530.24 205.966C530.24 205.966 534.606 208.877 537.517 221.977C540.428 235.077 559.35 284.565 552.073 296.21C544.795 307.854 533.151 334.054 508.406 316.587L483.662 271.465L508.406 248.177L518.595 255.454L530.24 205.966Z" fill="#2F2E41"/>
<path d="M433.911 122.562C433.911 122.562 408.886 82.0043 435.541 79.8949C444.436 79.2728 453.122 76.9061 461.103 72.9298C469.939 68.4338 481.061 65.0163 486.979 71.9374C489.562 75.1022 492.573 77.8917 495.926 80.2255C501.125 83.6733 507.14 89.2627 503.809 95.2584L498.348 105.088L490.703 124.746C492.484 116.267 492.528 109.148 487.973 105.634C487.973 105.634 462.557 116.45 449.748 96.8966C435.409 86.1383 430.847 120.001 433.911 122.562Z" fill="#2F2E41"/>
<path d="M469.834 208.149C473.854 208.149 477.112 204.891 477.112 200.871C477.112 196.852 473.854 193.594 469.834 193.594C465.815 193.594 462.557 196.852 462.557 200.871C462.557 204.891 465.815 208.149 469.834 208.149Z" fill="#15FFB1"/>
</g>
<path d="M173.156 133.934C172.542 133.77 171.887 133.856 171.336 134.174C170.785 134.493 170.383 135.016 170.218 135.63L145.411 228.211C145.247 228.825 145.334 229.48 145.652 230.031C145.97 230.582 146.493 230.984 147.107 231.149L162.824 235.36C163.438 235.524 164.093 235.438 164.644 235.12C165.194 234.801 165.597 234.278 165.762 233.664L190.569 141.083C190.733 140.469 190.646 139.814 190.328 139.263C190.01 138.712 189.487 138.31 188.872 138.145L173.156 133.934Z" fill="#3F3D56"/>
<path d="M303.818 168.952C303.203 168.788 302.549 168.875 301.998 169.193C301.447 169.511 301.045 170.035 300.879 170.649L276.072 263.229C275.909 263.844 275.995 264.498 276.313 265.049C276.631 265.6 277.155 266.003 277.769 266.168L293.485 270.379C294.1 270.543 294.754 270.456 295.305 270.138C295.856 269.82 296.258 269.297 296.424 268.682L321.23 176.102C321.394 175.487 321.308 174.833 320.99 174.282C320.672 173.731 320.148 173.329 319.534 173.163L303.818 168.952Z" fill="#3F3D56"/>
<path d="M396.952 115.071L278.943 73.4797L370.686 115.631L394.792 117.816L396.952 115.071Z" fill="#3F3D56"/>
<path d="M371.963 114.41L396.069 116.595L396.437 116.128L397.517 116.508L395.357 119.254L371.251 117.068L279.83 73.717L307.408 84.7501L371.963 114.41Z" fill="#15FFB1"/>
<path d="M124.052 41.9478L6.04248 0.356049L97.7861 42.5072L121.892 44.6928L124.052 41.9478Z" fill="#3F3D56"/>
<path d="M96.848 40.6927L120.953 42.8782L121.321 42.411L122.401 42.7916L120.241 45.5365L96.1357 43.3511L4.71362 0L32.2924 11.033L96.848 40.6927Z" fill="#15FFB1"/>
<path d="M404.392 168.821L394.084 166.534L290.182 180.905L283.64 183.948L262.905 193.587L209.742 179.342L197.53 160.875L192.888 153.853L113.533 91.8352L105.796 88.8124L135.82 83.0873L135.962 83.1253C143.519 79.0202 196.896 88.5315 260.381 105.542C323.866 122.553 374.847 141.004 379.339 148.338L379.924 148.495L404.392 168.821Z" fill="#3F3D56"/>
<path d="M134.914 83.5484C135.245 83.0679 135.492 82.5344 135.644 81.9709L141.282 60.9291C141.637 59.6071 141.451 58.1985 140.767 57.0131C140.082 55.8278 138.955 54.9629 137.633 54.6086L135.609 54.0663C137.72 52.8344 139.42 51.0052 140.493 48.8092C141.567 46.6132 141.967 44.1486 141.642 41.7259C141.317 39.3031 140.283 37.0307 138.669 35.1947C137.055 33.3588 134.934 32.0416 132.573 31.4089C130.212 30.7763 127.717 30.8565 125.401 31.6396C123.086 32.4226 121.054 33.8735 119.561 35.8093C118.069 37.7451 117.182 40.0794 117.014 42.5179C116.846 44.9565 117.403 47.3903 118.615 49.5128L116.591 48.9705C115.937 48.7951 115.254 48.7503 114.582 48.8388C113.91 48.9273 113.262 49.1472 112.675 49.4861C112.089 49.8249 111.574 50.276 111.162 50.8137C110.749 51.3514 110.446 51.965 110.271 52.6197L104.633 73.6614C104.402 74.5229 104.399 75.4298 104.625 76.2926C103.05 76.1533 101.469 76.0365 99.8756 75.9643C98.9042 75.9237 97.9479 76.2156 97.1649 76.792C96.3819 77.3684 95.819 78.1946 95.5691 79.1342L94.2296 84.1335C93.9359 85.2294 94.0896 86.397 94.6569 87.3795C95.2241 88.3621 96.1585 89.079 97.2543 89.3726L144.07 101.917L147.394 89.5122C143.363 87.2652 139.194 85.2734 134.914 83.5484Z" fill="#3F3D56"/>
<path d="M411.513 159.467C410.098 158.733 408.67 158.044 407.236 157.377C407.863 156.743 408.315 155.956 408.545 155.094L414.183 134.053C414.359 133.398 414.403 132.715 414.315 132.043C414.226 131.371 414.007 130.724 413.668 130.137C413.329 129.55 412.878 129.035 412.34 128.623C411.802 128.21 411.189 127.908 410.534 127.732L408.51 127.19C410.621 125.958 412.321 124.129 413.394 121.933C414.468 119.737 414.868 117.272 414.543 114.849C414.218 112.427 413.184 110.154 411.57 108.318C409.956 106.482 407.835 105.165 405.474 104.532C403.113 103.9 400.618 103.98 398.302 104.763C395.986 105.546 393.954 106.997 392.462 108.933C390.969 110.869 390.083 113.203 389.915 115.641C389.747 118.08 390.304 120.514 391.516 122.636L389.492 122.094C388.838 121.919 388.155 121.874 387.483 121.962C386.811 122.051 386.163 122.271 385.576 122.61C384.989 122.948 384.475 123.4 384.062 123.937C383.65 124.475 383.347 125.089 383.172 125.743L377.534 146.785C377.384 147.349 377.331 147.934 377.377 148.516C372.808 147.87 368.202 147.511 363.588 147.441L360.264 159.846L407.079 172.39C408.175 172.684 409.343 172.53 410.325 171.963C411.308 171.395 412.025 170.461 412.318 169.365L413.658 164.366C413.911 163.427 413.837 162.43 413.447 161.539C413.057 160.649 412.375 159.918 411.513 159.467Z" fill="#3F3D56"/>
<path d="M407.585 117.92L530.579 140.905L430.052 131.538L408.083 121.378L407.585 117.92Z" fill="#3F3D56"/>
<path d="M246.768 184.982L228.074 179.973C227.382 179.787 226.66 179.74 225.949 179.833C225.238 179.927 224.553 180.16 223.932 180.518C223.311 180.876 222.767 181.354 222.331 181.922C221.895 182.491 221.574 183.14 221.389 183.833L220.297 187.907C220.011 188.977 220.058 190.11 220.431 191.153C220.804 192.196 221.486 193.101 222.386 193.748C221.364 194.468 220.628 195.525 220.306 196.733L219.993 197.902C219.77 198.735 219.751 199.61 219.939 200.452C220.127 201.293 220.516 202.077 221.072 202.737L216.904 218.29L237.283 223.75L241.451 208.197C242.262 207.904 242.991 207.42 243.574 206.785C244.158 206.149 244.579 205.382 244.802 204.549L245.116 203.381C245.441 202.173 245.332 200.89 244.807 199.756C245.91 199.646 246.953 199.203 247.798 198.486C248.643 197.769 249.249 196.812 249.537 195.742L250.628 191.667C250.814 190.975 250.861 190.253 250.768 189.542C250.674 188.831 250.441 188.146 250.083 187.525C249.725 186.904 249.247 186.36 248.679 185.924C248.11 185.487 247.461 185.167 246.768 184.982Z" fill="#3F3D56"/>
<path d="M208.686 213.729C207.854 213.507 206.967 213.624 206.221 214.055C205.474 214.485 204.93 215.195 204.705 216.027L197.967 241.174C197.745 242.007 197.862 242.894 198.293 243.64C198.724 244.387 199.433 244.931 200.265 245.155L238.261 255.336C239.093 255.558 239.98 255.441 240.726 255.01C241.472 254.579 242.017 253.87 242.241 253.038L248.98 227.89C249.202 227.057 249.084 226.171 248.653 225.425C248.223 224.678 247.513 224.134 246.682 223.91L208.686 213.729Z" fill="#15FFB1"/>
<path d="M283.67 183.948L262.934 193.587L209.772 179.342L197.56 160.875L213.482 165.142L215.107 161.859C215.584 160.894 216.381 160.123 217.362 159.679C218.344 159.234 219.449 159.144 220.489 159.422L264.942 171.333C265.982 171.612 266.894 172.243 267.521 173.119C268.149 173.994 268.454 175.06 268.385 176.135L268.151 179.79L283.67 183.948Z" fill="#15FFB1"/>
<path d="M220.15 246.937C227.001 248.773 234.043 244.707 235.878 237.856C237.714 231.005 233.648 223.963 226.797 222.128C219.947 220.292 212.905 224.358 211.069 231.209C209.233 238.059 213.299 245.101 220.15 246.937Z" fill="#3F3D56"/>
<path d="M221.574 241.62C225.489 242.669 229.513 240.346 230.562 236.431C231.61 232.517 229.287 228.493 225.373 227.444C221.458 226.395 217.434 228.718 216.385 232.633C215.336 236.548 217.659 240.572 221.574 241.62Z" fill="#E6E6E6"/>
<path d="M229.269 230.043C229.943 231.684 230 233.515 229.427 235.194C228.854 236.874 227.691 238.288 226.155 239.176C224.618 240.063 222.811 240.363 221.07 240.019C219.33 239.675 217.772 238.711 216.688 237.306C217.083 238.276 217.682 239.15 218.443 239.87C219.204 240.589 220.111 241.137 221.101 241.476C222.092 241.816 223.144 241.939 224.186 241.838C225.229 241.737 226.237 241.414 227.144 240.89C228.051 240.366 228.836 239.654 229.444 238.802C230.053 237.95 230.472 236.977 230.673 235.95C230.875 234.922 230.854 233.863 230.611 232.844C230.369 231.825 229.911 230.87 229.269 230.043Z" fill="white"/>
<path d="M413.544 165.675L95.4556 80.4437L94.9119 82.4728L413 167.704L413.544 165.675Z" fill="#E6E6E6"/>
<path d="M431.328 130.317L409.36 120.157L409.275 119.568L408.149 119.358L408.647 122.815L430.616 132.975L531.465 141.143L502.065 136.908L431.328 130.317Z" fill="#15FFB1"/>
<path d="M134.713 44.7967L257.708 67.7818L157.18 58.414L135.212 48.2541L134.713 44.7967Z" fill="#3F3D56"/>
<path d="M158.9 57.3117L136.932 47.1516L136.847 46.5631L135.721 46.3528L136.219 49.81L158.188 59.97L259.037 68.1378L229.637 63.9033L158.9 57.3117Z" fill="#15FFB1"/>
<path d="M259.427 173.892L223.986 164.395L222.086 171.483L257.528 180.98L259.427 173.892Z" fill="#E6E6E6"/>
<defs>
<filter id="filter0_f" x="273" y="64" width="342.166" height="654.528" filterUnits="userSpaceOnUse" color-interpolation-filters="sRGB">
<feFlood flood-opacity="0" result="BackgroundImageFix"/>
<feBlend mode="normal" in="SourceGraphic" in2="BackgroundImageFix" result="shape"/>
<feGaussianBlur stdDeviation="2" result="effect1_foregroundBlur"/>
</filter>
</defs>
</svg>
