<svg width="697" height="511" viewBox="0 0 697 511" fill="none" xmlns="http://www.w3.org/2000/svg">
<g clip-path="url(#clip0)">
<g opacity="0.1" filter="url(#filter0_i)">
<path d="M5.66825 269.017C18.7128 247.643 48.2118 251.369 69.131 262.526C90.0501 273.684 110.924 290.339 133.946 287.139C153.358 284.439 169.275 267.459 177.874 247.87C186.474 228.281 188.997 206.193 191.417 184.559C194.458 157.38 197.497 130.184 200.534 102.97C201.647 93.0194 202.96 82.5173 208.538 74.644C215.908 64.2588 229.418 61.0653 240.975 64.1874C252.531 67.3094 262.386 75.6825 270.817 85.0228C297.825 114.932 313.127 155.363 336.738 188.648C341.546 195.425 346.974 202.123 354.157 205.394C364.51 210.1 376.396 206.77 386.509 201.532C419.509 184.468 441.677 149.645 463.463 117.152C474.062 101.36 486.983 84.4711 504.615 82.751C523.166 80.9011 539.271 96.7581 550.174 113.55C585.167 167.579 592.666 241.34 634.938 288.463C640.185 294.305 645.977 299.706 652.648 303.334C654.848 304.526 657.142 305.536 659.506 306.352C696.388 319.158 708.682 370.565 681.403 401.046C680.814 401.695 680.212 402.344 679.604 402.993C675.553 407.284 670.966 411.341 665.492 412.619C660.399 413.801 655.139 412.438 650.092 410.964C617.83 401.52 585.956 387.084 552.601 387.785C520.145 388.435 489.358 403.474 457.264 408.887C435.685 412.528 413.731 411.801 391.912 411.016C319.244 408.394 246.591 405.343 173.953 401.864C137.899 400.202 101.833 398.619 65.7857 396.769C38.0143 395.321 20.324 392.134 17.1016 359.804C14.2805 331.491 -11.058 296.434 5.66825 269.017Z" fill="#15FFB1"/>
</g>
<path d="M511.105 511C607.588 511 685.802 500.035 685.802 486.51C685.802 472.985 607.588 462.021 511.105 462.021C414.623 462.021 336.408 472.985 336.408 486.51C336.408 500.035 414.623 511 511.105 511Z" fill="#30374E"/>
<path d="M96.2422 380.86C96.2422 380.86 104.783 378.913 110.38 384.67C110.38 384.67 106.783 387.915 98.3192 384.319L96.2422 380.86Z" fill="#15FFB1"/>
<path d="M95.2975 380.775C95.2975 380.775 90.2376 387.967 93.4469 395.347C93.4469 395.347 97.821 393.238 97.6981 384.021L95.2975 380.775Z" fill="#15FFB1"/>
<path d="M89.6035 369.936C89.6035 369.936 92.6382 363.348 107.074 371.312C107.074 371.312 105.521 375.713 99.3869 375.777C93.2529 375.842 91.4153 373.175 89.6035 369.936Z" fill="#15FFB1"/>
<path d="M88.6847 369.533C88.6847 369.533 81.4571 369.196 81.8648 385.708C81.8648 385.708 86.4782 386.357 89.3576 380.918C92.237 375.479 90.7099 372.668 88.6847 369.533Z" fill="#15FFB1"/>
<path d="M83.6506 356.682C83.6506 356.682 86.8859 345.206 102.072 352.216C102.072 352.216 99.4192 362.725 85.3783 360.42L83.6506 356.682Z" fill="#15FFB1"/>
<path d="M78.0149 340.234C78.0149 340.234 84.8607 328.395 99.0376 338.001C99.0376 338.001 95.0323 348.951 79.4384 344.2L78.0149 340.234Z" fill="#15FFB1"/>
<path d="M75.3362 324.396C75.3362 324.396 83.5084 313.395 97.5688 322.897C97.5688 322.897 89.7654 332.594 75.5109 327.051L75.3362 324.396Z" fill="#15FFB1"/>
<path d="M72.9163 309C72.9163 309 81.1726 297.538 94.6507 306.956C94.6507 306.956 85.152 317.231 73.0845 311.545L72.9163 309Z" fill="#15FFB1"/>
<path d="M72.7996 295.201C72.7996 295.201 81.3083 280.577 93.9258 289.249C93.9258 289.249 84.5953 301.951 72.9807 297.856L72.7996 295.201Z" fill="#15FFB1"/>
<path d="M73.9448 278.987C73.9448 278.987 83.0035 264.448 95.3557 274.327C95.3557 274.327 84.2912 287.146 74.0872 281.564L73.9448 278.987Z" fill="#15FFB1"/>
<path d="M76.2936 264.409C76.2936 264.409 87.2935 250.577 98.0022 255.081C98.0022 255.081 86.5623 269.75 76.0024 267.907L76.2936 264.409Z" fill="#15FFB1"/>
<path d="M79.529 250.518C79.529 250.518 92.1724 233.642 100.474 238.432C100.474 238.432 91.2148 251.472 78.7461 253.588L79.529 250.518Z" fill="#15FFB1"/>
<path d="M84.4596 234.33C84.4596 234.33 95.5695 220.492 104.518 223.14C104.518 223.14 95.1683 237.349 83.1008 238.51L84.4596 234.33Z" fill="#15FFB1"/>
<path d="M88.8918 219.2C88.8918 219.2 101.302 205.829 107.21 207.634C107.21 207.634 98.5716 222.147 88.4971 222.011L88.8918 219.2Z" fill="#15FFB1"/>
<path d="M93.2725 205.206C93.2725 205.206 103.684 189.531 109.979 190.277C109.979 190.277 103.955 204.031 93.376 206.718L93.2725 205.206Z" fill="#15FFB1"/>
<path d="M97.7952 186.441C97.7952 186.441 107.106 174.329 112.554 173.992C112.554 173.992 105.624 189.791 97.627 190.219L97.7952 186.441Z" fill="#15FFB1"/>
<path d="M100.383 173.973L108.523 149.509C108.523 149.509 110.464 170.993 99.4646 178.471L100.383 173.973Z" fill="#15FFB1"/>
<path d="M102.577 147.451C102.577 147.451 102.862 127.466 101.716 125.921C101.716 125.921 109.785 141.979 103.101 156.24L102.577 147.451Z" fill="#15FFB1"/>
<path d="M83.2364 356.441C83.2364 356.441 72.7154 350.846 67.209 366.651C67.209 366.651 76.5912 372.026 84.6793 360.284L83.2364 356.441Z" fill="#15FFB1"/>
<path d="M77.6461 339.617C77.6461 339.617 64.8862 334.782 59.9492 351.223C59.9492 351.223 69.9591 357.162 79.0437 343.59L77.6461 339.617Z" fill="#15FFB1"/>
<path d="M74.8249 325.389C74.8249 325.389 65.2551 315.582 52.5923 326.902C52.5923 326.902 61.6122 335.463 74.9996 328.064L74.8249 325.389Z" fill="#15FFB1"/>
<path d="M72.6121 309.026C72.6121 309.026 62.9064 298.764 50.8 309.909C50.8 309.909 61.5799 318.821 72.7998 311.564L72.6121 309.026Z" fill="#15FFB1"/>
<path d="M72.8256 295.59C72.8256 295.59 65.4751 280.356 52.23 288.016C52.23 288.016 60.551 301.406 72.4438 298.232L72.8256 295.59Z" fill="#15FFB1"/>
<path d="M74.702 278.87C74.702 278.87 67.3709 263.357 53.9575 271.685C53.9575 271.685 63.4433 285.711 74.2361 281.376L74.702 278.87Z" fill="#15FFB1"/>
<path d="M77.6331 264.396C77.6331 264.396 73.9837 247.098 62.395 246.306C62.395 246.306 66.0703 264.564 76.3131 267.648L77.6331 264.396Z" fill="#15FFB1"/>
<path d="M79.8266 250.531C79.8266 250.531 77.452 229.56 67.8821 229.462C67.8821 229.462 69.2732 245.41 78.9531 253.575L79.8266 250.531Z" fill="#15FFB1"/>
<path d="M85.4107 233.662C85.4107 233.662 81.3925 216.357 72.1655 214.839C72.1655 214.839 74.4302 231.715 84.8024 238.024L85.4107 233.662Z" fill="#15FFB1"/>
<path d="M89.9789 219.252C89.9789 219.252 88.6848 201.033 82.9261 198.728C82.9261 198.728 80.5903 215.462 88.5231 221.693L89.9789 219.252Z" fill="#15FFB1"/>
<path d="M93.6864 204.979C93.6864 204.979 91.6482 186.253 85.7212 184.001C85.7212 184.001 84.7506 198.988 92.9035 206.264L93.6864 204.979Z" fill="#15FFB1"/>
<path d="M98.7011 187.882C98.7011 187.882 97.64 172.622 93.2983 169.312C93.2983 169.312 90.3348 186.311 96.76 191.095L98.7011 187.882Z" fill="#15FFB1"/>
<path d="M99.8271 173.252L94.133 148.107C94.133 148.107 90.1019 169.293 100.325 177.822L99.8271 173.252Z" fill="#15FFB1"/>
<path d="M98.9405 147.938C98.9405 147.938 87.533 131.529 87.6236 129.621C87.6236 129.621 89.9141 147.458 103.418 155.513L98.9405 147.938Z" fill="#15FFB1"/>
<path d="M99.827 142.817C99.827 142.817 88.5295 119.197 84.0195 117.503C84.0195 117.503 98.3129 123.624 100.59 142.038L99.827 142.817Z" fill="#15FFB1"/>
<path d="M97.5882 190.342L96.9412 190.18C103.315 162.919 104.214 145.731 99.4647 141.785L99.9046 141.252C104.913 145.433 104.123 162.412 97.5882 190.342Z" fill="#444053"/>
<path d="M79.2895 254.38L78.2866 254.101C78.9919 251.596 79.7554 249.045 80.5707 246.533C87.6883 224.646 93.6023 204.343 97.2323 188.804L98.054 188.317C94.4176 203.895 88.6653 224.945 81.5607 246.851C80.7519 249.357 79.9884 251.888 79.2895 254.38Z" fill="#444053"/>
<path d="M109.733 400.033C109.591 399.897 95.3558 385.838 84.4206 360.933C78.0134 346.355 73.9492 330.851 72.379 314.998C70.4378 295.181 73.0907 272.723 78.8495 252.102L79.6777 252.959C66.7367 299.245 75.6725 337.56 85.65 360.316C96.4751 384.981 110.548 398.904 110.691 399.04L109.733 400.033Z" fill="#444053"/>
<path d="M125.405 325.902C125.405 325.902 130.581 324.714 133.959 328.206C133.959 328.206 131.778 330.154 126.667 327.992L125.405 325.902Z" fill="#15FFB1"/>
<path d="M124.842 325.857C124.842 325.857 121.788 330.206 123.729 334.665C123.729 334.665 126.369 333.367 126.317 327.817L124.842 325.857Z" fill="#15FFB1"/>
<path d="M121.4 319.295C121.4 319.295 123.231 315.316 131.947 320.132C131.947 320.132 131.008 322.787 127.301 322.826C123.593 322.865 122.506 321.255 121.4 319.295Z" fill="#15FFB1"/>
<path d="M120.843 319.055C120.843 319.055 116.469 318.853 116.715 328.83C116.715 328.83 119.504 329.219 121.244 325.935C122.985 322.65 122.066 320.95 120.843 319.055Z" fill="#15FFB1"/>
<path d="M117.783 311.285C117.783 311.285 119.769 304.346 128.931 308.572C128.931 308.572 127.333 314.926 118.844 313.531L117.783 311.285Z" fill="#15FFB1"/>
<path d="M114.392 301.341C114.392 301.341 118.527 294.201 127.1 299.991C127.1 299.991 124.674 306.612 115.253 303.736L114.392 301.341Z" fill="#15FFB1"/>
<path d="M112.768 291.767C112.768 291.767 117.712 285.114 126.207 290.859C126.207 290.859 121.497 296.7 112.878 293.37L112.768 291.767Z" fill="#15FFB1"/>
<path d="M111.306 282.459C111.306 282.459 116.301 275.527 124.447 281.226C124.447 281.226 118.708 287.438 111.409 283.998L111.306 282.459Z" fill="#15FFB1"/>
<path d="M111.241 274.112C111.241 274.112 116.417 265.278 124.007 270.516C124.007 270.516 118.365 278.195 111.344 275.709L111.241 274.112Z" fill="#15FFB1"/>
<path d="M111.914 264.318C111.914 264.318 117.407 255.523 124.855 261.475C124.855 261.475 118.164 269.225 111.991 265.85L111.914 264.318Z" fill="#15FFB1"/>
<path d="M113.35 255.503C113.35 255.503 119.995 247.143 126.472 249.869C126.472 249.869 119.555 258.736 113.188 257.619L113.35 255.503Z" fill="#15FFB1"/>
<path d="M115.304 247.104C115.304 247.104 122.946 236.907 127.967 239.796C127.967 239.796 122.37 247.682 114.832 248.961L115.304 247.104Z" fill="#15FFB1"/>
<path d="M118.287 237.329C118.287 237.329 125.004 228.962 130.426 230.566C130.426 230.566 124.777 239.153 117.485 239.854L118.287 237.329Z" fill="#15FFB1"/>
<path d="M120.966 228.171C120.966 228.171 128.465 220.089 132.037 221.18C132.037 221.18 126.822 229.949 120.727 229.871L120.966 228.171Z" fill="#15FFB1"/>
<path d="M123.613 219.713C123.613 219.713 129.908 210.237 133.713 210.678C133.713 210.678 130.077 218.993 123.677 220.622L123.613 219.713Z" fill="#15FFB1"/>
<path d="M126.356 208.367C126.356 208.367 131.985 201.046 135.279 200.838C135.279 200.838 131.086 210.392 126.252 210.632L126.356 208.367Z" fill="#15FFB1"/>
<path d="M127.915 200.825L132.826 186.052C132.826 186.052 133.991 199.033 127.333 203.577L127.915 200.825Z" fill="#15FFB1"/>
<path d="M129.242 184.793C129.242 184.793 129.41 172.713 128.718 171.779C128.718 171.779 133.597 181.482 129.552 190.109L129.242 184.793Z" fill="#15FFB1"/>
<path d="M117.543 311.142C117.543 311.142 111.189 307.754 107.837 317.308C107.837 317.308 113.512 320.554 118.404 313.466L117.543 311.142Z" fill="#15FFB1"/>
<path d="M114.172 300.939C114.172 300.939 106.453 298.018 103.47 307.955C103.47 307.955 109.52 311.545 115.013 303.347L114.172 300.939Z" fill="#15FFB1"/>
<path d="M112.457 292.364C112.457 292.364 106.679 286.438 99.0181 293.273C99.0181 293.273 104.473 298.466 112.567 293.974L112.457 292.364Z" fill="#15FFB1"/>
<path d="M111.124 282.473C111.124 282.473 105.256 276.274 97.9375 283.011C97.9375 283.011 104.453 288.392 111.228 284.011L111.124 282.473Z" fill="#15FFB1"/>
<path d="M111.254 274.327C111.254 274.327 106.809 265.116 98.7981 269.744C98.7981 269.744 103.832 277.838 111.021 275.923L111.254 274.327Z" fill="#15FFB1"/>
<path d="M112.386 264.233C112.386 264.233 107.954 254.854 99.8269 259.891C99.8269 259.891 105.56 268.374 112.089 265.733L112.386 264.233Z" fill="#15FFB1"/>
<path d="M114.159 255.503C114.159 255.503 111.953 245.04 104.945 244.566C104.945 244.566 107.164 255.601 113.357 257.463L114.159 255.503Z" fill="#15FFB1"/>
<path d="M115.485 247.111C115.485 247.111 114.062 234.434 108.239 234.369C108.239 234.369 109.08 244.015 114.929 248.954L115.485 247.111Z" fill="#15FFB1"/>
<path d="M118.857 236.914C118.857 236.914 116.43 226.45 110.853 225.529C110.853 225.529 112.225 235.726 118.494 239.542L118.857 236.914Z" fill="#15FFB1"/>
<path d="M121.62 228.203C121.62 228.203 120.824 217.169 117.362 215.793C117.362 215.793 115.945 225.912 120.74 229.676L121.62 228.203Z" fill="#15FFB1"/>
<path d="M123.865 219.57C123.865 219.57 122.636 208.25 119.051 206.887C119.051 206.887 118.462 215.974 123.393 220.349L123.865 219.57Z" fill="#15FFB1"/>
<path d="M126.893 209.237C126.893 209.237 126.246 200.013 123.658 198.008C123.658 198.008 121.865 208.289 125.748 211.178L126.893 209.237Z" fill="#15FFB1"/>
<path d="M127.592 200.39L124.15 185.189C124.15 185.189 121.71 198.001 127.89 203.155L127.592 200.39Z" fill="#15FFB1"/>
<path d="M127.042 185.091C127.042 185.091 120.151 175.18 120.203 174.018C120.203 174.018 121.581 184.799 129.747 189.667L127.042 185.091Z" fill="#15FFB1"/>
<path d="M127.56 181.989C127.56 181.989 120.727 167.709 118.003 166.703C118.003 166.703 126.647 170.402 128.019 181.541L127.56 181.989Z" fill="#15FFB1"/>
<path d="M126.22 210.717L125.812 210.62C129.695 194.139 130.212 183.748 127.34 181.366L127.605 181.041C130.652 183.572 130.174 193.841 126.22 210.717Z" fill="#444053"/>
<path d="M115.162 249.441L114.554 249.266C114.981 247.753 115.447 246.215 115.938 244.722C120.228 231.487 123.813 219.213 126.007 209.821L126.505 209.522C124.305 218.934 120.83 231.669 116.534 244.917C116.042 246.416 115.583 247.928 115.162 249.441Z" fill="#444053"/>
<path d="M133.564 337.495C133.48 337.41 124.874 328.914 118.261 313.855C114.391 305.042 111.934 295.671 110.982 286.088C109.798 274.106 111.416 260.527 114.903 248.058L115.401 248.577C107.579 276.559 112.981 299.725 119.012 313.485C125.56 328.414 134.062 336.807 134.153 336.891L133.564 337.495Z" fill="#444053"/>
<path d="M153.027 369.949C151.367 370.245 149.741 370.71 148.175 371.338C113.273 385.319 113.855 476.839 113.855 476.839H103.58C103.58 476.839 100.345 437.563 86.2454 381.528C73.5438 331.114 125.638 285.932 136.217 277.364C137.408 276.41 138.068 275.904 138.068 275.904C190.537 295.246 153.027 369.949 153.027 369.949Z" fill="#AFC0E0"/>
<path opacity="0.2" d="M141.885 277.494C140.675 276.936 139.427 276.404 138.1 275.917C138.1 275.917 137.453 276.423 136.25 277.377C125.67 285.945 73.5762 331.127 86.2779 381.541C100.377 437.576 103.58 476.839 103.58 476.839H109.358C109.358 476.839 106.155 437.563 92.0237 381.528C79.3738 331.348 130.963 286.334 141.885 277.494Z" fill="white"/>
<path d="M326.139 381.541C312.008 437.576 308.824 476.839 308.824 476.839H298.53C298.53 476.839 299.177 381.191 261.822 370.514C261.013 370.27 260.19 370.077 259.357 369.936C259.357 369.936 221.828 295.233 274.317 275.904C274.317 275.904 274.848 276.3 275.805 277.072C285.53 284.881 338.983 330.543 326.139 381.541Z" fill="#AFC0E0"/>
<path opacity="0.1" d="M153.027 369.949C151.367 370.245 149.741 370.71 148.175 371.338C141.864 340.36 137.868 308.952 136.217 277.377C137.408 276.423 138.068 275.917 138.068 275.917C190.537 295.246 153.027 369.949 153.027 369.949Z" fill="black"/>
<path opacity="0.1" d="M275.825 277.085C273.685 308.568 269.009 339.826 261.842 370.552C261.033 370.309 260.21 370.116 259.377 369.975C259.377 369.975 221.848 295.272 274.337 275.943C274.317 275.917 274.848 276.313 275.825 277.085Z" fill="black"/>
<path d="M256.614 384.112C252.99 398.452 248.743 413.164 243.873 428.249C243.873 428.249 220.761 452.401 164.933 428.249C164.933 428.249 159.355 412.476 153.221 385.663C139.717 326.707 123.522 214.358 158.029 98.9585C168.305 64.2671 182.91 31.0174 201.498 0C201.498 0 230.977 33.9533 252.615 98.939C274.252 163.925 288.021 259.956 256.614 384.112Z" fill="#E3E8F4"/>
<path d="M206.189 237.063C231.786 237.063 252.537 216.247 252.537 190.569C252.537 164.892 231.786 144.076 206.189 144.076C180.592 144.076 159.841 164.892 159.841 190.569C159.841 216.247 180.592 237.063 206.189 237.063Z" fill="#AFC0E0"/>
<path d="M239.059 190.595C239.059 196.839 237.292 202.955 233.962 208.231C230.633 213.507 225.879 217.726 220.253 220.397C214.627 223.069 208.36 224.083 202.182 223.322C196.004 222.561 190.168 220.055 185.354 216.098C183.004 214.156 180.931 211.9 179.194 209.393C178.414 208.272 177.705 207.104 177.072 205.894C174.607 201.174 173.321 195.924 173.325 190.595C173.325 190.329 173.325 190.07 173.325 189.81C173.494 182.759 175.909 175.947 180.218 170.373C184.526 164.799 190.501 160.756 197.266 158.836C199.85 158.122 202.508 157.717 205.186 157.629H206.17C210.487 157.626 214.763 158.477 218.753 160.132C222.743 161.788 226.368 164.216 229.423 167.277C232.477 170.339 234.9 173.974 236.554 177.975C238.207 181.976 239.058 186.264 239.059 190.595Z" fill="#15FFB1"/>
<path d="M252.609 98.939C200.023 124.195 157.997 98.939 157.997 98.939C168.284 64.2527 182.901 31.0097 201.498 0C201.498 0 230.978 33.9533 252.609 98.939Z" fill="#AFC0E0"/>
<path d="M256.614 384.112C254.155 393.822 251.416 403.699 248.396 413.742C246.964 418.532 245.454 423.361 243.867 428.23C243.867 428.23 220.754 452.382 164.927 428.23C164.927 428.23 163.115 423.108 160.397 413.742C158.366 406.667 155.836 397.184 153.196 385.644C153.196 385.644 173.979 394.542 203.478 394.542C221.702 394.605 239.758 391.06 256.614 384.112Z" fill="#AFC0E0"/>
<path d="M248.396 413.742C246.964 418.532 245.454 423.362 243.867 428.23C243.867 428.23 220.754 452.382 164.927 428.23C164.927 428.23 163.115 423.108 160.397 413.742C160.391 413.742 217.293 430.164 248.396 413.742Z" fill="#E3E8F4"/>
<path opacity="0.2" d="M197.286 158.791L197.215 158.842L173.338 189.765C173.338 190.024 173.338 190.284 173.338 190.55C173.334 195.879 174.62 201.129 177.085 205.849L205.219 157.583L197.286 158.791Z" fill="white"/>
<path opacity="0.2" d="M204.908 186.701L185.354 216.072C183.004 214.13 180.931 211.874 179.194 209.367L202.488 184.286L204.908 186.701Z" fill="white"/>
<path opacity="0.2" d="M177.421 428.236C177.421 428.236 171.844 412.457 165.71 385.65C152.206 326.688 136.01 214.339 170.517 98.939C179.793 67.7145 192.567 37.6454 208.596 9.30776C204.216 3.14801 201.479 0.00646973 201.479 0.00646973C182.888 31.0149 168.278 64.2557 157.997 98.939C123.49 214.339 139.685 326.688 153.189 385.65C159.323 412.457 164.901 428.236 164.901 428.236C186.959 437.771 203.905 439.77 216.341 438.706C205.717 437.894 192.815 434.889 177.421 428.236Z" fill="white"/>
<path d="M606.273 473.133C606.273 473.133 636.517 435.382 634.511 397.574C633.569 381.723 637.779 365.994 646.507 352.748C650.708 346.482 655.473 340.616 660.742 335.223" stroke="#535461" stroke-width="2" stroke-miterlimit="10"/>
<path d="M659.597 311.415C657.436 316.679 660.671 335.872 660.671 335.872C660.671 335.872 676.44 324.526 678.601 319.262C679.638 316.734 679.632 313.896 678.584 311.373C677.535 308.85 675.53 306.847 673.01 305.807C670.49 304.766 667.661 304.772 665.146 305.824C662.63 306.876 660.634 308.887 659.597 311.415Z" fill="#15FFB1"/>
<path d="M631.916 334.094C632.958 339.689 646.074 354.033 646.074 354.033C646.074 354.033 653.191 335.918 652.124 330.316C651.624 327.628 650.081 325.249 647.833 323.703C645.585 322.156 642.817 321.569 640.137 322.07C637.457 322.571 635.086 324.119 633.544 326.374C632.002 328.629 631.417 331.406 631.916 334.094Z" fill="#15FFB1"/>
<path d="M612.155 384.215C615.869 388.519 634.414 394.263 634.414 394.263C634.414 394.263 631.411 375.031 627.697 370.721C625.895 368.723 623.383 367.512 620.702 367.349C618.02 367.185 615.381 368.082 613.351 369.846C611.32 371.611 610.059 374.103 609.838 376.789C609.617 379.475 610.453 382.141 612.168 384.215H612.155Z" fill="#15FFB1"/>
<path d="M605.717 425.516C608.648 430.391 625.956 439.192 625.956 439.192C625.956 439.192 626.241 419.72 623.31 414.852C622.612 413.693 621.693 412.684 620.606 411.881C619.519 411.078 618.285 410.498 616.975 410.174C615.664 409.85 614.303 409.788 612.969 409.991C611.634 410.195 610.353 410.66 609.198 411.36C608.043 412.06 607.036 412.982 606.236 414.072C605.436 415.163 604.858 416.4 604.534 417.715C604.211 419.029 604.149 420.395 604.352 421.734C604.555 423.072 605.019 424.358 605.717 425.516Z" fill="#15FFB1"/>
<path d="M665.608 363.296C660.341 365.405 641.24 361.965 641.24 361.965C641.24 361.965 652.706 346.264 657.979 344.148C660.511 343.133 663.34 343.169 665.845 344.246C668.35 345.324 670.326 347.356 671.338 349.896C672.349 352.435 672.314 355.273 671.24 357.786C670.165 360.299 668.139 362.281 665.608 363.296Z" fill="#15FFB1"/>
<path d="M657.468 411.503C651.813 411.938 634.614 402.922 634.614 402.922C634.614 402.922 650.234 391.375 655.896 390.94C658.581 390.79 661.218 391.701 663.242 393.479C665.265 395.257 666.513 397.759 666.719 400.449C666.925 403.139 666.072 405.803 664.342 407.87C662.613 409.936 660.145 411.24 657.468 411.503Z" fill="#15FFB1"/>
<path d="M643.149 457.263C637.643 458.652 619.176 452.68 619.176 452.68C619.176 452.68 632.628 438.654 638.134 437.271C639.443 436.941 640.804 436.872 642.138 437.069C643.473 437.267 644.757 437.726 645.915 438.42C647.073 439.115 648.083 440.032 648.888 441.118C649.693 442.204 650.277 443.439 650.606 444.752C650.935 446.064 651.004 447.429 650.807 448.768C650.611 450.107 650.153 451.395 649.461 452.556C648.768 453.718 647.854 454.732 646.771 455.539C645.688 456.347 644.458 456.932 643.149 457.263Z" fill="#15FFB1"/>
<path opacity="0.25" d="M659.597 311.415C657.436 316.679 660.671 335.872 660.671 335.872C660.671 335.872 676.44 324.526 678.601 319.262C679.638 316.734 679.632 313.896 678.584 311.373C677.535 308.85 675.53 306.847 673.01 305.807C670.49 304.766 667.661 304.772 665.146 305.824C662.63 306.876 660.634 308.887 659.597 311.415Z" fill="black"/>
<path opacity="0.25" d="M631.916 334.094C632.958 339.689 646.074 354.033 646.074 354.033C646.074 354.033 653.191 335.918 652.124 330.316C651.624 327.628 650.081 325.249 647.833 323.703C645.585 322.156 642.817 321.569 640.137 322.07C637.457 322.571 635.086 324.119 633.544 326.374C632.002 328.629 631.417 331.406 631.916 334.094Z" fill="black"/>
<path opacity="0.25" d="M612.155 384.215C615.869 388.519 634.414 394.263 634.414 394.263C634.414 394.263 631.411 375.031 627.697 370.721C625.895 368.723 623.383 367.512 620.702 367.349C618.02 367.185 615.381 368.082 613.351 369.846C611.32 371.611 610.059 374.103 609.838 376.789C609.617 379.475 610.453 382.141 612.168 384.215H612.155Z" fill="black"/>
<path opacity="0.25" d="M605.717 425.516C608.648 430.391 625.956 439.192 625.956 439.192C625.956 439.192 626.241 419.72 623.31 414.852C622.612 413.693 621.693 412.684 620.606 411.881C619.519 411.078 618.285 410.498 616.975 410.174C615.664 409.85 614.303 409.788 612.969 409.991C611.634 410.195 610.353 410.66 609.198 411.36C608.043 412.06 607.036 412.982 606.236 414.072C605.436 415.163 604.858 416.4 604.534 417.715C604.211 419.029 604.149 420.395 604.352 421.734C604.555 423.072 605.019 424.358 605.717 425.516Z" fill="black"/>
<path opacity="0.25" d="M665.608 363.296C660.341 365.405 641.24 361.965 641.24 361.965C641.24 361.965 652.706 346.264 657.979 344.148C660.511 343.133 663.34 343.169 665.845 344.246C668.35 345.324 670.326 347.356 671.338 349.896C672.349 352.435 672.314 355.273 671.24 357.786C670.165 360.299 668.139 362.281 665.608 363.296Z" fill="black"/>
<path opacity="0.25" d="M657.468 411.503C651.813 411.938 634.614 402.922 634.614 402.922C634.614 402.922 650.234 391.375 655.896 390.94C658.581 390.79 661.218 391.701 663.242 393.479C665.265 395.257 666.513 397.759 666.719 400.449C666.925 403.139 666.072 405.803 664.342 407.87C662.613 409.936 660.145 411.24 657.468 411.503Z" fill="black"/>
<path opacity="0.25" d="M643.149 457.263C637.643 458.652 619.176 452.68 619.176 452.68C619.176 452.68 632.628 438.654 638.134 437.271C639.443 436.941 640.804 436.872 642.138 437.069C643.473 437.267 644.757 437.726 645.915 438.42C647.073 439.115 648.083 440.032 648.888 441.118C649.693 442.204 650.277 443.439 650.606 444.752C650.935 446.064 651.004 447.429 650.807 448.768C650.611 450.107 650.153 451.395 649.461 452.556C648.768 453.718 647.854 454.732 646.771 455.539C645.688 456.347 644.458 456.932 643.149 457.263Z" fill="black"/>
<path d="M606.545 471.555C606.545 471.555 649.444 449.331 662.884 413.956C668.424 399.08 678.628 386.409 691.962 377.848C698.322 373.83 705.037 370.406 712.021 367.619" stroke="#535461" stroke-width="2" stroke-miterlimit="10"/>
<path d="M686.158 354.858C684.864 360.401 691.043 378.874 691.043 378.874C691.043 378.874 704.819 365.198 706.152 359.622C706.771 356.966 706.316 354.172 704.886 351.853C703.455 349.533 701.167 347.876 698.522 347.246C695.876 346.616 693.09 347.063 690.772 348.49C688.455 349.916 686.796 352.206 686.158 354.858Z" fill="#15FFB1"/>
<path d="M647.84 392.647C649.496 398.093 664.133 410.88 664.133 410.88C664.133 410.88 669.16 392.056 667.504 386.637C667.11 385.341 666.467 384.137 665.609 383.091C664.751 382.045 663.697 381.179 662.506 380.543C661.315 379.906 660.01 379.511 658.667 379.38C657.323 379.249 655.967 379.384 654.676 379.779C653.385 380.174 652.184 380.82 651.142 381.68C650.099 382.54 649.236 383.598 648.601 384.793C647.966 385.988 647.572 387.296 647.442 388.644C647.311 389.992 647.446 391.352 647.84 392.647Z" fill="#15FFB1"/>
<path d="M625.271 427.788C625.983 433.442 638.251 448.52 638.251 448.52C638.251 448.52 646.377 430.845 645.659 425.192C645.316 422.48 643.913 420.015 641.758 418.341C639.604 416.667 636.875 415.919 634.171 416.264C631.467 416.608 629.011 418.016 627.342 420.177C625.672 422.338 624.928 425.076 625.271 427.788Z" fill="#15FFB1"/>
<path d="M705.162 395.25C699.488 395.042 683.421 384.131 683.421 384.131C683.421 384.131 700.245 374.44 705.919 374.648C707.268 374.698 708.593 375.014 709.82 375.577C711.047 376.141 712.151 376.942 713.07 377.934C713.988 378.925 714.703 380.089 715.173 381.358C715.643 382.627 715.859 383.976 715.809 385.329C715.76 386.681 715.445 388.011 714.883 389.242C714.321 390.472 713.523 391.58 712.534 392.501C711.546 393.422 710.386 394.139 709.121 394.611C707.856 395.083 706.511 395.3 705.162 395.25Z" fill="#15FFB1"/>
<path d="M678.245 436.012C672.894 434.11 660.813 418.876 660.813 418.876C660.813 418.876 679.766 414.677 685.11 416.578C686.382 417.031 687.553 417.73 688.556 418.636C689.558 419.542 690.373 420.637 690.954 421.859C691.535 423.081 691.87 424.406 691.94 425.758C692.01 427.11 691.815 428.463 691.364 429.739C690.913 431.015 690.216 432.189 689.313 433.195C688.41 434.201 687.318 435.018 686.1 435.601C684.881 436.183 683.561 436.519 682.213 436.59C680.865 436.661 679.517 436.464 678.245 436.012Z" fill="#15FFB1"/>
<path d="M646.662 472.029C641.072 471.062 626.604 458.094 626.604 458.094C626.604 458.094 644.572 450.746 650.163 451.713C652.848 452.178 655.24 453.694 656.811 455.928C658.383 458.161 659.005 460.93 658.542 463.624C658.079 466.318 656.567 468.717 654.341 470.293C652.114 471.87 649.354 472.494 646.669 472.029H646.662Z" fill="#15FFB1"/>
<path d="M667.543 450.694L634.291 402.318C634.291 402.318 633.644 390.343 631.496 387.545C629.347 384.748 631.03 378.523 631.03 378.523C631.03 378.523 633.359 375.102 631.34 374.791C629.322 374.479 631.03 366.853 631.03 366.853L630.874 354.721C630.874 354.721 632.738 343.038 631.185 340.26C630.73 339.503 630.503 338.631 630.531 337.748C630.558 336.865 630.839 336.008 631.34 335.281C631.34 335.281 633.204 328.589 631.34 326.882C629.477 325.175 629.943 314.745 630.409 306.501C630.874 298.258 627.141 293.591 627.141 292.345C627.141 291.099 614.847 278.967 614.847 277.883C614.847 276.8 607.082 272.282 602.417 271.036C597.752 269.789 595.423 268.861 595.578 268.238C595.733 267.615 588.273 265.129 588.273 265.129C588.273 265.129 581.744 264.662 579.253 261.39C576.762 258.119 569.165 257.184 568.945 257.152C568.9 256.938 568.848 256.717 568.803 256.503C568.758 256.289 568.706 256.035 568.661 255.802C569.249 254.809 569.793 253.796 570.285 252.751C570.433 252.433 570.576 252.102 570.712 251.803C573.436 251.68 576.231 251.096 578.366 249.421C579.463 248.501 580.36 247.364 581 246.081C581.64 244.798 582.01 243.396 582.087 241.963C582.219 239.088 581.591 236.229 580.269 233.675C578.91 230.871 576.91 227.969 577.596 224.932C577.9 223.633 578.683 222.465 579.085 221.18C579.842 218.746 579.143 216.072 577.965 213.813C576.787 211.554 575.15 209.568 573.843 207.381C572.174 204.593 571.06 201.507 570.563 198.293C570.298 196.606 570.194 194.827 569.346 193.341C568.644 192.238 567.715 191.298 566.622 190.582C561.761 187.094 555.89 185.308 549.915 185.5C545.684 185.649 541.465 186.798 537.266 186.273C534.736 185.961 532.322 185.059 529.876 184.325C524.661 182.78 518.65 182.144 514.108 185.137C509.565 188.129 507.76 194.016 504.687 198.618C501.969 202.694 497.983 206.108 495.913 210.418C495.913 210.34 495.951 210.256 495.977 210.172C495.468 211.169 495.08 212.224 494.819 213.313C494.03 216.701 494.69 220.245 495.511 223.627C495.932 225.373 496.514 227.268 498.022 228.235C499.53 229.203 501.665 228.988 503.451 229.306C503.386 229.599 503.308 229.897 503.244 230.196C501.394 238.96 502.904 248.101 507.471 255.8C512.038 263.498 519.329 269.188 527.89 271.737C527.89 272.055 527.89 272.386 527.89 272.684C527.887 273.578 527.833 274.471 527.728 275.359C527.728 275.359 512.102 272.113 507.902 274.32C503.703 276.527 495.466 278.215 494.224 279.448C492.982 280.681 489.876 279.759 487.106 287.074C484.337 294.39 484 301.847 480.422 305.249C476.844 308.65 474.987 311.006 474.832 313.498C474.676 315.991 475.298 316.607 473.894 317.393C472.489 318.178 470.477 321.437 471.098 322.683C471.098 322.683 471.875 325.792 469.39 327.343C466.905 328.895 467.21 332.01 467.21 332.01C467.21 332.01 466.278 335.437 464.104 336.21C461.93 336.982 460.525 342.123 460.525 342.123L453.453 350.269L439.483 334.756C438.437 333.593 436.974 332.895 435.414 332.815C433.855 332.734 432.328 333.278 431.169 334.327L424.31 340.533C421.663 341.176 419.27 342.606 417.445 344.635C415.95 346.174 414.746 347.973 413.893 349.944L410.133 353.332C408.952 354.802 408.23 356.589 408.058 358.47C407.887 360.35 408.273 362.239 409.169 363.899L418.118 373.824L418.176 373.908C414.792 374.337 411.803 375.427 409.518 377.446C396.157 389.265 395.995 400.163 398.02 405.129C400.046 410.094 416.979 429.242 416.979 429.242C416.979 429.242 426.821 442.074 441.03 448.903L440.92 449.013C440.642 449.312 440.363 449.662 440.092 449.987L439.859 450.285L439.645 450.584L439.393 450.96C439.322 451.058 439.257 451.161 439.192 451.265C439.127 451.369 439.011 451.557 438.927 451.713L438.752 452.012C438.649 452.206 438.539 452.408 438.435 452.615L438.332 452.817C438.202 453.089 438.073 453.368 437.95 453.66C437.905 453.764 437.866 453.875 437.82 453.978C437.743 454.18 437.659 454.387 437.581 454.628C437.503 454.868 437.484 454.894 437.439 455.03C437.393 455.166 437.303 455.432 437.238 455.64C437.173 455.848 437.148 455.932 437.109 456.075C437.07 456.218 436.979 456.529 436.921 456.763C436.863 456.997 436.85 457.036 436.811 457.185C436.727 457.542 436.643 457.912 436.572 458.301C436.572 458.444 436.52 458.593 436.494 458.743C436.442 459.002 436.397 459.268 436.358 459.541C436.326 459.729 436.306 459.917 436.28 460.106C436.255 460.294 436.216 460.618 436.183 460.878L436.125 461.475C436.125 461.761 436.073 462.059 436.054 462.358C436.054 462.54 436.054 462.722 436.022 462.903C436.022 463.397 435.97 463.89 435.963 464.409C435.653 482.583 436.714 485.251 436.714 485.251C436.714 485.251 438.908 491.047 444.964 491.463C445.853 491.528 446.746 491.48 447.623 491.32C455.705 489.918 474.664 486.653 481.348 487.899C485.366 488.646 492.807 487.542 498.106 486.536L499.497 486.27L500.468 489.36L503.541 488.516L506.13 490.028L507.78 490.976C510.847 501.413 523.309 497.856 523.309 497.856L526.233 499.557L556.231 500.336C556.231 500.336 562.701 504.23 566.849 505.45C567.342 505.6 567.846 505.711 568.356 505.781C571.137 506.005 573.929 506.057 576.716 505.937C579.013 505.879 580.793 505.781 580.793 505.781C580.793 505.781 580.489 497.609 580.049 488.464C591.514 487.984 601.68 487.263 607.833 486.179C623.854 483.356 630.538 468.745 632.997 460.937C633.736 464.128 634.261 467.365 634.569 470.627C635.222 473.477 636.054 476.282 637.06 479.026C637.935 481.234 639.083 483.323 640.477 485.245C652.292 481.201 645.142 475.138 642.651 472.49C640.16 469.842 644.365 467.667 644.365 467.667C644.365 467.667 647.601 465.493 647.316 463.468C647.031 461.443 646.85 459.268 657.416 459.424C667.983 459.58 667.543 450.694 667.543 450.694ZM503.412 351.385C503.548 352.274 505.023 361.861 506.356 364.367C506.634 364.899 506.744 366.788 506.705 369.488C500.442 368.988 493.92 368.722 493.92 368.722C494.107 368.949 494.224 369.227 494.256 369.52L493.273 369.3L491.843 368.949L503.38 351.346L503.412 351.385ZM480.558 387.863L491.396 389.59L492.309 389.733C491.998 391.428 491.81 393.144 491.746 394.867C491.746 395.029 491.992 395.224 492.341 395.451C492.189 396.308 492.118 397.177 492.127 398.047C492.302 398.911 497.369 400.767 503.179 402.312C503.101 402.623 503.024 402.922 502.946 403.201C497.815 400.494 489.727 399.229 488.795 397.217C487.863 395.204 460.325 385.533 460.325 385.533C460.325 385.533 459.322 385.001 457.588 384.157L464.835 385.533L466.828 385.332C471.346 386.466 475.932 387.307 480.558 387.85V387.863Z" fill="url(#paint0_linear)"/>
<path d="M632.162 457.464C632.162 457.464 627.853 483.576 605.976 487.438C584.099 491.3 511.079 490.528 511.079 490.528C511.079 490.528 469.332 484.505 454.236 449.117C439.14 413.729 429.435 399.664 442.376 399.047C455.317 398.43 525.101 422.693 529.08 422.998C533.06 423.303 636.012 369.222 632.162 457.464Z" fill="#434175"/>
<path opacity="0.05" d="M632.162 457.464C632.162 457.464 627.853 483.576 605.976 487.438C584.099 491.3 511.079 490.528 511.079 490.528C511.079 490.528 469.332 484.505 454.236 449.117C439.14 413.729 429.435 399.664 442.376 399.047C455.317 398.43 525.101 422.693 529.08 422.998C533.06 423.303 636.012 369.222 632.162 457.464Z" fill="black"/>
<path d="M436.338 486.51C436.338 486.51 438.519 492.274 444.517 492.683C445.398 492.745 446.282 492.697 447.151 492.54C455.161 491.151 473.958 487.906 480.577 489.139C484.563 489.885 491.933 488.782 497.181 487.789C500.675 487.14 503.224 486.491 503.224 486.491C503.224 486.491 497.064 465.941 496.288 465.324C495.511 464.708 468.562 448.481 468.562 448.481L447.209 446.942H447.144C447.144 446.942 443.191 447.209 439.91 451.207C437.652 453.939 435.717 458.431 435.588 465.792C435.29 483.881 436.338 486.51 436.338 486.51Z" fill="#565387"/>
<path opacity="0.05" d="M436.338 486.51C436.338 486.51 438.519 492.274 444.517 492.683C442.412 489.97 440.468 487.135 438.694 484.193L438.804 469.206C437.853 457.983 443.087 450.798 447.215 446.962H447.151C447.151 446.962 435.905 447.728 435.594 465.785C435.284 483.843 436.338 486.51 436.338 486.51Z" fill="black"/>
<path opacity="0.1" d="M528.951 453.751L548.822 438.173L580.094 407.264C580.094 407.264 576.716 407.102 571.624 406.881C570.33 407.693 566.803 410.244 566.674 413.372C566.519 417.15 558.217 413.632 553.908 415.793C549.598 417.955 528.492 445.054 524.79 444.878C521.089 444.703 518.171 442.996 516.625 445.625C516.625 445.683 516.553 445.735 516.515 445.794L528.951 453.751Z" fill="black"/>
<path opacity="0.1" d="M439.917 451.22C440.622 451.564 441.334 451.869 442.065 452.206C457.167 458.697 475.802 472.328 477.193 474.768C478.035 476.274 488.84 482.856 497.181 487.789C500.675 487.14 503.224 486.491 503.224 486.491C503.224 486.491 497.064 465.941 496.288 465.324C495.511 464.708 468.562 448.481 468.562 448.481L447.209 446.942H447.144C447.144 446.942 443.197 447.222 439.917 451.22Z" fill="black"/>
<path d="M398.014 406.927C400.013 411.873 416.778 430.884 416.778 430.884C416.778 430.884 427.403 444.788 442.505 451.278C457.607 457.769 476.242 471.4 477.627 473.84C478.52 475.431 490.568 482.7 499.031 487.698L500.927 488.808L505.133 491.255L507.359 492.553C507.359 492.553 512.535 488.399 517.653 484.219C522.772 480.039 527.767 475.943 527.851 475.71C528 475.249 529.999 469.991 529.54 469.686C529.3 469.524 528.246 467.382 526.305 464.902C524.233 462.15 521.544 459.927 518.456 458.412C511.338 455.166 508.291 447.78 508.291 447.78C508.291 447.78 507.644 447.286 506.589 446.637C504.764 445.482 501.833 443.82 499.665 443.541C496.268 443.113 489.96 436.161 489.96 436.161C489.96 436.161 485.644 433.377 483.949 429.826C482.331 426.438 458.442 409.977 456.229 408.459L514.146 445.768L528.006 454.705L547.877 439.128L579.156 408.218C579.156 408.218 574.95 408.011 568.803 407.751C553.604 407.102 526.609 406.057 523.199 406.829C520.423 407.478 517.559 407.665 514.722 407.381C514.722 407.381 507.035 407.732 501.95 405.038C496.864 402.344 488.847 401.085 487.921 399.092C486.996 397.1 459.729 387.506 459.729 387.506C459.729 387.506 422.608 367.729 409.357 379.477C396.105 391.226 396.008 401.987 398.014 406.927Z" fill="#434175"/>
<path d="M517.705 293.507L522.48 309.422L528.64 345.271L551.287 346.816L557.842 335.911L564.409 325.026C564.409 325.026 568.486 310.539 571.417 296.525C574.005 284.128 575.7 272.094 572.879 270.789C570.381 269.627 568.738 265.454 567.703 260.962C567.567 260.41 567.444 259.846 567.327 259.281C566.573 255.478 566.071 251.629 565.826 247.76C565.826 247.76 518.378 245.293 525.004 264.915C526.186 268.267 526.79 271.796 526.79 275.352C526.783 276.239 526.729 277.125 526.628 278.007C526.291 281.069 525.324 284.028 523.788 286.696C522.252 289.364 520.181 291.683 517.705 293.507Z" fill="#EE8E9E"/>
<path d="M507.844 290.878L509.54 317.919L513.389 340.941L517.705 351.606L521.555 409.945C521.555 409.945 558.702 414.255 567.735 409.867C568.386 409.588 568.952 409.14 569.372 408.569C580.282 392.063 576.703 344.187 576.703 344.187L580.864 313.271L578.088 297.226L571.391 296.512L566.215 295.96C566.215 295.96 565.05 297.401 563.368 299.628C558.799 305.677 550.427 317.575 550.964 322.54C551.727 329.342 550.038 336.294 547.418 337.378C544.797 338.462 542.643 340.312 542.183 338.462C541.724 336.612 541.258 336.145 541.717 333.516C542.177 330.887 539.711 322.852 539.711 322.852C539.711 322.852 535.557 313.427 535.829 309.409C536.101 305.391 535.37 300.751 534.134 299.673C532.898 298.596 531.209 297.505 532.594 292.533C533.979 287.561 526.518 277.961 526.518 277.961L507.844 290.878Z" fill="#E3E8F4"/>
<path opacity="0.1" d="M556.91 358.415L558.45 404.622L567.347 409.568C567.998 409.289 568.563 408.841 568.984 408.27C579.9 391.738 576.321 343.869 576.321 343.869L580.482 312.96L577.706 296.921L571.003 296.207C573.591 283.81 575.286 271.776 572.472 270.471C569.967 269.309 568.324 265.136 567.256 260.644L562.468 293.357C562.468 293.357 562.869 296.304 563.012 299.342C563.122 301.601 563.083 303.885 562.623 305.099C561.543 307.884 562.313 312.83 562.313 312.83C559.537 317.737 558.152 326.83 557.473 335.612C556.561 347.289 556.91 358.415 556.91 358.415Z" fill="black"/>
<path d="M567.405 259.93C567.405 259.93 575.17 260.897 577.629 264.142C580.087 267.388 586.564 267.836 586.564 267.836C586.564 267.836 593.96 270.309 593.805 270.925C593.65 271.542 595.96 272.477 600.586 273.71C605.212 274.943 612.88 279.428 612.88 280.512C612.88 281.596 625.051 293.643 625.051 294.883C625.051 296.123 628.752 300.725 628.286 308.942C627.82 317.159 627.361 327.486 629.212 329.187C631.062 330.887 629.212 337.534 629.212 337.534C628.721 338.261 628.45 339.115 628.433 339.992C628.416 340.87 628.653 341.734 629.114 342.48C630.654 345.264 628.81 356.857 628.81 356.857L628.959 368.91C628.959 368.91 627.264 376.478 629.27 376.79C631.276 377.102 628.959 380.496 628.959 380.496C628.959 380.496 627.264 386.682 629.425 389.46C631.586 392.238 632.194 404.142 632.194 404.142L665.194 452.174C665.194 452.174 665.66 460.982 655.184 460.826C644.708 460.67 644.831 462.838 645.168 464.844C645.504 466.85 642.243 469.018 642.243 469.018C642.243 469.018 638.083 471.179 640.548 473.808C643.013 476.437 650.098 482.46 638.393 486.478C637.008 484.57 635.869 482.493 635.003 480.299C634.009 477.572 633.186 474.787 632.537 471.958C632.537 471.958 631.457 460.21 629.302 458.665C627.147 457.12 627.452 449.701 627.452 449.701C627.452 449.701 630.532 443.678 626.222 441.205C621.913 438.732 559.298 403.993 559.298 403.993L557.758 357.785C557.758 357.785 556.677 323.637 563.148 312.2C563.148 312.2 562.378 307.254 563.458 304.476C564.539 301.698 563.303 292.728 563.303 292.728L567.405 259.93Z" fill="#565387"/>
<path opacity="0.1" d="M527.029 278.468C527.029 278.468 511.545 275.268 507.385 277.429C503.224 279.591 495.091 281.324 493.797 282.531C492.503 283.738 489.481 282.842 486.712 290.106C483.942 297.369 483.625 304.781 480.086 308.182C476.546 311.584 474.696 313.901 474.54 316.374C474.385 318.847 475 319.463 473.615 320.268C472.231 321.073 470.225 324.286 470.839 325.526C471.454 326.766 502.94 353.923 502.94 353.923C502.94 353.923 504.486 364.308 505.871 366.905C507.255 369.501 504.331 405.693 501.251 408.166C498.171 410.639 522.047 410.412 522.047 410.412C522.047 410.412 523.121 386.688 524.046 385.449C524.972 384.209 523.399 358.837 523.399 358.837C523.399 358.837 523.244 337.203 525.25 331.484C527.256 325.766 527.029 306.78 527.029 306.78C527.029 306.78 528.802 295.376 530.957 292.715C533.112 290.054 527.029 278.468 527.029 278.468Z" fill="black"/>
<path d="M526.57 278.007C526.57 278.007 511.079 274.807 506.919 276.968C502.758 279.13 494.625 280.83 493.363 282.07C492.101 283.31 489.054 282.375 486.246 289.638C483.437 296.901 483.166 304.32 479.62 307.722C476.074 311.123 474.23 313.44 474.075 315.913C473.919 318.386 474.54 319.003 473.156 319.775C471.771 320.547 469.765 323.793 470.38 325.026C470.995 326.259 502.422 353.462 502.422 353.462C502.422 353.462 503.962 363.847 505.347 366.444C506.731 369.04 503.807 405.226 500.727 407.699C497.647 410.172 521.523 409.945 521.523 409.945C521.523 409.945 522.603 386.221 523.529 384.988C524.454 383.755 522.882 358.376 522.882 358.376C522.882 358.376 522.733 336.742 524.732 331.023C526.732 325.305 526.512 306.294 526.512 306.294C526.512 306.294 528.284 294.889 530.433 292.235C532.581 289.58 526.57 278.007 526.57 278.007Z" fill="#565387"/>
<path opacity="0.1" d="M524.939 264.915C526.122 268.267 526.725 271.796 526.725 275.352C534.3 277.603 542.409 277.243 549.757 274.33C557.105 271.417 563.268 266.119 567.263 259.281C566.508 255.478 566.007 251.629 565.762 247.76C565.762 247.76 518.32 245.293 524.939 264.915Z" fill="black"/>
<path d="M501.529 240.497C501.537 249.562 505.012 258.278 511.239 264.848C517.465 271.418 525.967 275.34 534.992 275.806C544.017 276.272 552.876 273.247 559.742 267.353C566.608 261.459 570.957 253.147 571.893 244.131C572.829 235.115 570.281 226.082 564.773 218.896C559.265 211.709 551.217 206.917 542.291 205.508C533.364 204.098 524.238 206.179 516.796 211.321C509.354 216.463 504.162 224.274 502.292 233.143C501.783 235.56 501.527 238.025 501.529 240.497Z" fill="#EE8E9E"/>
<path d="M478.882 322.397L470.412 325.026C470.412 325.026 471.182 328.116 468.717 329.66C466.252 331.205 466.562 334.301 466.562 334.301C466.562 334.301 465.637 337.696 463.482 338.468C461.328 339.241 459.936 344.31 459.936 344.31L452.851 352.501C452.851 352.501 450.231 354.663 450.697 355.747C451.162 356.831 447.921 357.136 447.921 357.136L449.616 384.67L464.252 387.454L473.311 386.526L480.707 383.742L487.177 379.847L490.128 372.337L503.069 352.56L478.882 322.397Z" fill="#565387"/>
<path d="M450.075 359.356C450.075 359.356 431.311 332.153 417.263 346.835C403.216 361.517 422.964 385.312 427.584 384.54C432.204 383.768 454.236 382.534 454.236 382.534L450.075 359.356Z" fill="#EE8E9E"/>
<path d="M428.601 340.402L411.217 356.131C407.868 359.161 407.602 364.34 410.623 367.7L429.934 389.177C432.955 392.536 438.118 392.803 441.467 389.773L458.851 374.044C462.199 371.014 462.466 365.834 459.445 362.475L440.134 340.998C437.113 337.639 431.95 337.372 428.601 340.402Z" fill="#30374E"/>
<path opacity="0.1" d="M428.601 340.402L411.217 356.131C407.868 359.161 407.602 364.34 410.623 367.7L429.934 389.177C432.955 392.536 438.118 392.803 441.467 389.773L458.851 374.044C462.199 371.014 462.466 365.834 459.445 362.475L440.134 340.998C437.113 337.639 431.95 337.372 428.601 340.402Z" fill="black"/>
<path d="M429.13 338.162L411.747 353.891C408.398 356.921 408.132 362.1 411.152 365.46L430.464 386.937C433.484 390.296 438.648 390.563 441.997 387.533L459.38 371.804C462.729 368.774 462.995 363.594 459.975 360.235L440.663 338.758C437.643 335.399 432.479 335.132 429.13 338.162Z" fill="#30374E"/>
<path d="M435.07 372.772C439.92 372.772 443.851 368.829 443.851 363.964C443.851 359.1 439.92 355.156 435.07 355.156C430.221 355.156 426.29 359.1 426.29 363.964C426.29 368.829 430.221 372.772 435.07 372.772Z" fill="#15FFB1"/>
<path opacity="0.1" d="M435.07 372.772C439.92 372.772 443.851 368.829 443.851 363.964C443.851 359.1 439.92 355.156 435.07 355.156C430.221 355.156 426.29 359.1 426.29 363.964C426.29 368.829 430.221 372.772 435.07 372.772Z" fill="black"/>
<path d="M435.562 371.656C440.411 371.656 444.342 367.712 444.342 362.848C444.342 357.983 440.411 354.04 435.562 354.04C430.713 354.04 426.781 357.983 426.781 362.848C426.781 367.712 430.713 371.656 435.562 371.656Z" fill="#15FFB1"/>
<path d="M437.911 365.048C437.756 385.449 479.814 389.772 479.814 389.772L490.555 391.485L495.369 392.251L497.375 372.337C497.375 372.337 495.168 372.006 492.412 371.364C488.342 370.41 483.069 368.767 481.962 366.463C480.118 362.601 438.06 344.654 437.911 365.048Z" fill="#EE8E9E"/>
<path opacity="0.1" d="M502.292 233.143C503.263 233.214 504.178 233.623 504.881 234.298C506.071 235.564 506.136 237.809 507.682 238.588C508.26 238.841 508.9 238.915 509.52 238.802C513.616 238.218 515.991 233.61 519.918 232.312C522.157 231.585 524.622 232.059 526.809 232.902C527.689 233.179 528.478 233.688 529.093 234.376C530.387 236.083 529.488 238.595 530.096 240.665C530.944 243.534 534.36 244.677 537.317 245.053C540.274 245.43 543.607 245.637 545.58 247.877C546.978 249.467 547.334 251.771 547.049 253.855C546.875 254.582 546.875 255.341 547.049 256.068C547.864 258.385 551.863 258.015 552.905 256.211C553.668 254.88 553.435 253.777 555.234 253.407C556.451 253.154 557.881 253.666 559.007 254.056C562.143 255.141 565.448 255.651 568.764 255.562C570.861 251.047 571.984 246.139 572.061 241.159C572.137 236.179 571.165 231.238 569.207 226.661C567.25 222.084 564.351 217.972 560.701 214.596C557.051 211.219 552.732 208.653 548.026 207.066C543.319 205.479 538.332 204.905 533.39 205.384C528.448 205.863 523.662 207.383 519.345 209.844C515.029 212.305 511.278 215.653 508.34 219.667C505.401 223.682 503.341 228.274 502.292 233.143Z" fill="black"/>
<path d="M547.03 255.133C546.855 254.406 546.855 253.647 547.03 252.92C547.308 250.823 546.958 248.526 545.561 246.942C543.62 244.703 540.255 244.488 537.298 244.118C534.341 243.748 530.924 242.606 530.077 239.737C529.469 237.667 530.387 235.148 529.074 233.441C528.462 232.753 527.674 232.246 526.796 231.974C524.603 231.124 522.138 230.676 519.899 231.377C515.971 232.675 513.596 237.297 509.501 237.868C508.88 237.98 508.241 237.906 507.663 237.654C506.117 236.875 506.052 234.629 504.861 233.37C502.991 231.383 499.439 232.662 497.148 231.189C495.654 230.222 495.078 228.346 494.664 226.613C493.848 223.251 493.195 219.726 493.978 216.364C495.317 210.613 500.448 206.673 503.684 201.766C506.731 197.19 508.439 191.381 513.021 188.369C517.602 185.357 523.483 186.026 528.647 187.564C531.067 188.285 533.461 189.18 535.965 189.511C540.132 190.024 544.312 188.862 548.505 188.746C554.427 188.554 560.247 190.326 565.063 193.789C566.148 194.502 567.07 195.438 567.767 196.534C568.602 198.014 568.712 199.78 568.965 201.455C569.454 204.649 570.552 207.719 572.2 210.496C573.494 212.671 575.118 214.644 576.289 216.89C577.46 219.135 578.146 221.79 577.396 224.205C577.001 225.503 576.218 226.626 575.927 227.93C575.241 230.949 577.221 233.831 578.573 236.615C579.883 239.155 580.503 241.995 580.372 244.852C580.296 246.274 579.93 247.665 579.295 248.939C578.661 250.214 577.772 251.343 576.684 252.258C574.503 253.971 571.637 254.543 568.874 254.633C565.493 254.748 562.12 254.24 558.922 253.134C557.79 252.745 556.334 252.232 555.15 252.485C553.351 252.855 553.584 253.958 552.821 255.289C551.837 257.106 547.845 257.45 547.03 255.133Z" fill="#434175"/>
<path opacity="0.1" d="M528.025 454.679L547.896 439.102L579.175 408.192C579.175 408.192 574.969 407.985 568.822 407.725C567.703 408.867 566.706 410.321 566.641 411.944C566.486 415.722 558.184 412.21 553.875 414.372C549.566 416.533 528.459 443.626 524.758 443.45C521.057 443.275 518.139 441.568 516.592 444.197C516.559 444.258 516.523 444.316 516.482 444.372C515.867 445.076 515.044 445.565 514.133 445.768L528.025 454.679Z" fill="black"/>
<path d="M487.973 453.595L497.957 485.569L499.523 490.593L504.279 489.295L514.761 486.406L561.452 473.542C561.452 473.542 570.226 473.425 578.276 469.044C587.173 464.188 597.208 461.748 607.289 462.696C613.462 463.273 620.328 460.605 626.054 450.051C626.054 450.051 638.995 411.756 606.332 400.722C573.669 389.687 572.116 406.563 572.116 406.563C572.116 406.563 571.948 406.654 571.676 406.836C570.382 407.647 566.855 410.198 566.726 413.327C566.571 417.104 558.269 413.586 553.96 415.748C549.65 417.909 528.543 445.008 524.842 444.833C521.141 444.658 518.223 442.951 516.677 445.579C516.677 445.638 516.605 445.69 516.567 445.748C515.428 447.325 511.998 447.695 509.727 447.754C508.491 447.793 507.592 447.754 507.592 447.754L507.301 447.845L504.881 448.52L487.973 453.595Z" fill="#434175"/>
<path opacity="0.1" d="M490.555 391.485L495.369 392.251L497.375 372.337C497.375 372.337 495.168 372.006 492.412 371.364C493.143 374.122 491.487 384.878 490.555 391.485Z" fill="black"/>
<path opacity="0.1" d="M616.523 298.342C616.523 298.342 630.848 294.169 627.302 334.97C623.757 375.771 597.266 401.546 597.266 401.546C597.266 401.546 566.764 414.988 553.053 412.827C539.342 410.665 529.333 410.231 529.333 410.231C525.017 408.042 520.295 406.78 515.466 406.524C507.76 406.213 491.59 401.423 491.279 399.878C490.969 398.333 495.285 375.615 493.434 373.915C493.434 373.915 515 374.804 517.162 376.368C519.323 377.932 522.396 376.81 524.706 376.368C527.016 375.927 534.108 369.741 548.123 375.154C548.123 375.154 552.898 375.615 554.749 374.382C556.599 373.149 559.563 374.07 559.563 374.07C559.563 374.07 562.468 372.986 562.914 372.337C563.361 371.688 567.069 372.337 567.069 372.337C567.289 372.445 567.53 372.502 567.775 372.505C568.02 372.507 568.263 372.454 568.485 372.35C568.707 372.246 568.903 372.094 569.059 371.904C569.214 371.714 569.326 371.492 569.385 371.253C569.869 369.988 570.602 368.834 571.54 367.859C571.54 367.859 575.7 344.369 583.555 335.561C583.555 335.561 585.865 333.548 585.251 331.075C584.636 328.602 598.056 293.39 616.523 298.342Z" fill="black"/>
<path d="M616.173 295.201C616.173 295.201 630.499 291.027 626.96 331.828C623.42 372.629 596.885 398.43 596.885 398.43C596.885 398.43 566.383 411.873 552.672 409.711C538.961 407.55 528.951 407.083 528.951 407.083C524.636 404.893 519.913 403.631 515.085 403.376C507.385 403.065 491.208 398.275 490.898 396.73C490.587 395.185 494.903 372.467 493.059 370.767C493.059 370.767 514.625 371.656 516.78 373.22C518.935 374.784 522.021 373.661 524.331 373.22C526.641 372.779 533.726 366.6 547.748 372.006C547.748 372.006 552.523 372.467 554.367 371.234C556.211 370.001 559.188 370.922 559.188 370.922C559.188 370.922 562.073 369.838 562.533 369.222C562.992 368.605 566.693 369.222 566.693 369.222C566.913 369.33 567.153 369.387 567.398 369.39C567.642 369.392 567.884 369.34 568.105 369.237C568.327 369.133 568.522 368.982 568.678 368.793C568.833 368.604 568.944 368.382 569.003 368.144C569.486 366.877 570.219 365.72 571.158 364.743C571.158 364.743 575.319 341.253 583.174 332.445C583.174 332.445 585.484 330.433 584.869 327.966C584.254 325.5 597.655 290.255 616.173 295.201Z" fill="#565387"/>
<path opacity="0.1" d="M504.881 448.52L525.224 473.185C525.302 473.113 525.353 473.061 525.353 473.042C525.509 472.575 527.508 467.324 527.049 467.012C526.589 466.7 523.043 458.976 515.958 455.731C511.629 453.784 508.795 450.22 507.249 447.78L504.881 448.52Z" fill="black"/>
<path opacity="0.1" d="M505.159 491.255L507.385 492.553C507.385 492.553 512.561 488.399 517.679 484.219C522.798 480.039 527.793 475.943 527.877 475.71C528.026 475.249 530.025 469.991 529.566 469.686C529.326 469.524 528.272 467.382 526.33 464.902C512.535 461.008 521.316 470.634 522.487 471.075C522.487 471.075 505.664 467.181 504.771 485.556C504.649 487.465 504.779 489.381 505.159 491.255Z" fill="black"/>
<path d="M522.17 499.031L525.101 500.732L554.865 501.504C554.865 501.504 561.245 505.398 565.386 506.58C565.874 506.732 566.374 506.843 566.881 506.911C569.636 507.134 572.402 507.186 575.163 507.067C577.441 507.008 579.207 506.911 579.207 506.911C579.207 506.911 577.797 469.264 576.736 465.37C576.231 463.474 573.74 463.89 571.281 464.838C569.434 465.589 567.652 466.494 565.956 467.544C565.956 467.544 553.325 468.771 551.32 469.861C549.314 470.952 543.62 469.212 540.074 469.861C536.528 470.51 530.219 465.675 530.219 465.675C512.962 459.963 522.668 470.621 523.898 471.088C523.898 471.088 507.113 467.194 506.188 485.569C505.262 503.944 522.17 499.031 522.17 499.031Z" fill="#565387"/>
<path d="M565.154 484.505C565.477 492.294 571.527 501.958 575.131 507.067C577.409 507.008 579.175 506.911 579.175 506.911C579.175 506.911 577.765 469.264 576.703 465.37C576.199 463.474 573.708 463.89 571.249 464.838C568.292 470.42 564.895 478.228 565.154 484.505Z" fill="#565387"/>
<path opacity="0.1" d="M565.154 484.505C565.477 492.294 571.527 501.958 575.131 507.067C577.409 507.008 579.175 506.911 579.175 506.911C579.175 506.911 577.765 469.264 576.703 465.37C576.199 463.474 573.708 463.89 571.249 464.838C568.292 470.42 564.895 478.228 565.154 484.505Z" fill="black"/>
<path opacity="0.05" d="M560.067 485.537C562.112 493.053 562.093 501.485 565.354 506.58C565.842 506.732 566.342 506.843 566.849 506.911C569.603 507.135 572.37 507.187 575.131 507.067C577.408 507.008 579.175 506.911 579.175 506.911C579.175 506.911 577.764 469.264 576.703 465.37C576.198 463.474 573.707 463.89 571.249 464.838C569.401 465.589 567.62 466.494 565.923 467.544C565.923 467.544 557.453 475.917 560.067 485.537Z" fill="black"/>
<path opacity="0.1" d="M457.497 409.296C457.497 409.296 472.263 414.106 484.777 431.189L457.497 409.296Z" fill="black"/>
<g opacity="0.1">
<path opacity="0.1" d="M577.499 223.867C577.475 223.977 577.445 224.085 577.409 224.192C577.267 224.635 577.096 225.069 576.897 225.49C577.049 224.932 577.251 224.389 577.499 223.867Z" fill="black"/>
<path opacity="0.1" d="M493.952 216.37C494.208 215.288 494.593 214.239 495.097 213.248C495.02 213.514 494.935 213.781 494.871 214.053C494.088 217.415 494.741 220.94 495.557 224.302C495.977 226.035 496.547 227.911 498.041 228.878C500.338 230.352 503.865 229.066 505.754 231.052C506.945 232.318 507.009 234.564 508.562 235.343C509.14 235.596 509.78 235.67 510.4 235.557C514.489 234.973 516.87 230.364 520.798 229.066C523.037 228.339 525.496 228.813 527.689 229.663C528.567 229.935 529.355 230.443 529.967 231.13C531.261 232.837 530.361 235.356 530.97 237.42C531.817 240.289 535.234 241.431 538.191 241.801C541.148 242.171 544.48 242.385 546.454 244.631C547.851 246.215 548.207 248.526 547.922 250.609C547.751 251.337 547.751 252.095 547.922 252.823C548.738 255.14 552.737 254.77 553.746 252.965C554.509 251.635 554.283 250.531 556.082 250.161C557.292 249.908 558.722 250.421 559.848 250.81C563.046 251.916 566.419 252.424 569.799 252.31C572.562 252.212 575.435 251.661 577.609 249.934C578.603 249.14 579.418 248.145 580.003 247.013C579.496 249.073 578.339 250.913 576.703 252.258C574.529 253.971 571.663 254.543 568.893 254.634C565.515 254.748 562.144 254.24 558.948 253.134C557.816 252.745 556.36 252.232 555.176 252.485C553.377 252.855 553.604 253.958 552.847 255.289C551.798 257.119 547.806 257.463 546.984 255.146C546.813 254.419 546.813 253.661 546.984 252.933C547.269 250.836 546.92 248.539 545.522 246.955C543.542 244.716 540.21 244.501 537.253 244.131C534.296 243.761 530.879 242.619 530.038 239.75C529.423 237.68 530.349 235.161 529.035 233.454C528.42 232.767 527.63 232.26 526.751 231.987C524.557 231.137 522.099 230.689 519.86 231.39C515.926 232.688 513.551 237.31 509.462 237.881C508.842 237.994 508.202 237.919 507.624 237.667C506.071 236.888 506.007 234.642 504.816 233.383C502.946 231.397 499.4 232.675 497.11 231.202C495.608 230.235 495.039 228.359 494.618 226.626C493.816 223.257 493.163 219.733 493.952 216.37Z" fill="black"/>
</g>
<path opacity="0.1" d="M579.887 340.052C577.066 343.875 573.843 347.413 571.346 351.457C568.848 355.5 567.082 360.219 567.606 364.944C570.194 362.283 571.372 358.609 573.002 355.273C575.759 349.626 579.887 344.836 583.355 339.643C584.002 338.65 588.279 332.925 586.124 332.653C584.351 332.426 580.851 338.748 579.887 340.052Z" fill="black"/>
</g>
<defs>
<filter id="filter0_i" x="-0.000488281" y="63.0427" width="696.19" height="350.025" filterUnits="userSpaceOnUse" color-interpolation-filters="sRGB">
<feFlood flood-opacity="0" result="BackgroundImageFix"/>
<feBlend mode="normal" in="SourceGraphic" in2="BackgroundImageFix" result="shape"/>
<feColorMatrix in="SourceAlpha" type="matrix" values="0 0 0 0 0 0 0 0 0 0 0 0 0 0 0 0 0 0 127 0" result="hardAlpha"/>
<feOffset/>
<feGaussianBlur stdDeviation="10"/>
<feComposite in2="hardAlpha" operator="arithmetic" k2="-1" k3="1"/>
<feColorMatrix type="matrix" values="0 0 0 0 0 0 0 0 0 0 0 0 0 0 0 0 0 0 1 0"/>
<feBlend mode="normal" in2="shape" result="effect1_innerShadow"/>
</filter>
<linearGradient id="paint0_linear" x1="532.309" y1="505.97" x2="532.309" y2="183.021" gradientUnits="userSpaceOnUse">
<stop stop-color="#808080" stop-opacity="0.25"/>
<stop offset="0.54" stop-color="#808080" stop-opacity="0.12"/>
<stop offset="1" stop-color="#808080" stop-opacity="0.1"/>
</linearGradient>
<clipPath id="clip0">
<rect width="738" height="511" fill="white"/>
</clipPath>
</defs>
</svg>
